<svg width="17" height="17" xmlns="http://www.w3.org/2000/svg">

 <g>
  <title>background</title>
  <rect fill="none" id="canvas_background" height="402" width="582" y="-1" x="-1"/>
 </g>
 <g>
  <title>Layer 1</title>
  <path id="svg_1" fill="#ffffff" d="m14.0142,0.96509l-11.49596,0c-0.59727,0 -1.17008,0.23726 -1.59241,0.65959c-0.42233,0.42234 -0.6596,0.99514 -0.6596,1.59241l0,11.49601c0,0.5973 0.23727,1.1701 0.6596,1.5924c0.42233,0.4223 0.99514,0.6596 1.59241,0.6596l11.49596,0c0.5973,0 1.1701,-0.2373 1.5924,-0.6596c0.4224,-0.4223 0.6596,-0.9951 0.6596,-1.5924l0,-11.49601c0,-0.59727 -0.2372,-1.17007 -0.6596,-1.59241c-0.4223,-0.42233 -0.9951,-0.65959 -1.5924,-0.65959zm-8.41396,12.78401c0,0.04 -0.027,0.1 -0.08,0.181c-0.08,0.054 -0.141,0.08 -0.181,0.08l-1.85,0c-0.04,0 -0.1,-0.026 -0.18,-0.08c-0.054,-0.08 -0.081,-0.14 -0.081,-0.181l0,-6.49401c0,-0.04 0.027,-0.1 0.08,-0.18c0.08,-0.054 0.14,-0.081 0.181,-0.081l1.85,0c0.04,0 0.1,0.027 0.18,0.08c0.054,0.08 0.081,0.14 0.081,0.181l0,6.49401zm-0.301,-7.86101c-0.11498,0.11758 -0.25282,0.21036 -0.40503,0.27262c-0.15221,0.06226 -0.31556,0.09268 -0.47997,0.08938c-0.349,0 -0.643,-0.12 -0.885,-0.362c-0.11763,-0.11494 -0.21045,-0.25277 -0.27271,-0.40499c-0.06226,-0.15222 -0.09265,-0.31559 -0.08929,-0.48001c0,-0.335 0.121,-0.623 0.362,-0.864c0.11368,-0.12065 0.25083,-0.21678 0.40302,-0.28248c0.15219,-0.0657 0.31621,-0.0996 0.48198,-0.0996c0.16576,0 0.32978,0.0339 0.48197,0.0996c0.15219,0.0657 0.28934,0.16183 0.40303,0.28248c0.24,0.24 0.361,0.53 0.361,0.864c0,0.349 -0.12,0.644 -0.361,0.885zm8.16196,7.86101c-0.0003,0.034 -0.0075,0.0676 -0.0213,0.0987c-0.0137,0.0312 -0.0337,0.0592 -0.0587,0.0823c-0.0231,0.0249 -0.0511,0.0449 -0.0822,0.0587c-0.0311,0.0137 -0.0647,0.021 -0.0988,0.0213l-1.89,0c-0.04,0 -0.1,-0.026 -0.18,-0.08c-0.054,-0.08 -0.081,-0.14 -0.081,-0.181l0,-3.96001c0,-0.336 -0.06,-0.597 -0.181,-0.785c-0.148,-0.16 -0.389,-0.24 -0.724,-0.24c-0.42896,0 -0.73696,0.126 -0.92496,0.381c-0.174,0.255 -0.261,0.617 -0.261,1.08601l0,3.518c-0.00032,0.034 -0.00758,0.0676 -0.02133,0.0987c-0.01376,0.0312 -0.03372,0.0592 -0.05867,0.0823c-0.02326,0.0251 -0.05141,0.0451 -0.08271,0.0589c-0.0313,0.0137 -0.0651,0.0209 -0.09929,0.0211l-1.85,0c-0.04,0 -0.10001,-0.026 -0.18001,-0.08c-0.05399,-0.08 -0.07999,-0.14 -0.07999,-0.181l0,-6.49401c0,-0.04 0.026,-0.1 0.07999,-0.18c0.08,-0.054 0.14001,-0.081 0.18001,-0.081l1.79,0c0.054,0 0.10699,0.013 0.16,0.04c0.02799,0.014 0.055,0.06 0.081,0.14l0,0.101l0.01999,0.04l0,0.161c0.443,-0.428 1.05301,-0.643 1.82997,-0.643c0.871,0 1.541,0.208 2.01,0.623c0.483,0.442 0.724,1.08 0.724,1.91l0,4.38301z"/>
 </g>
</svg>